M48
; DRILL file {KiCad (5.1.5)-3} date 23/12/2020 21:14:14
; FORMAT={-:-/ absolute / inch / decimal}
; #@! TF.CreationDate,2020-12-23T21:14:14+01:00
; #@! TF.GenerationSoftware,Kicad,Pcbnew,(5.1.5)-3
; #@! TF.FileFunction,Plated,1,2,PTH
FMAT,2
INCH
T1C0.0157
T2C0.0315
T3C0.0394
T4C0.0433
%
G90
G05
T1
X2.1016Y-2.8043
X2.2622Y-4.2124
X2.4507Y-4.9506
X2.4759Y-5.5008
X2.6535Y-2.7343
X2.6715Y-5.2077
X2.6981Y-2.9413
X2.7519Y-2.995
X2.7974Y-3.5169
X2.8285Y-3.2865
X2.8839Y-5.8681
X2.9532Y-5.1601
X3.0333Y-4.232
X3.1856Y-4.8147
X3.2043Y-5.1392
X3.222Y-5.0466
X3.3037Y-6.0856
X3.3193Y-3.5249
X3.3276Y-2.0654
X3.4655Y-5.0279
X3.4943Y-4.9345
X3.5235Y-4.475
X3.581Y-4.6785
X3.6273Y-4.9345
X3.6284Y-4.8242
X3.9397Y-3.5296
X4.0357Y-4.4705
X4.1141Y-4.3587
X4.1143Y-6.051
X4.1535Y-4.388
X4.1949Y-6.042
X4.2141Y-2.6799
X4.2236Y-2.4223
X4.2418Y-3.1698
X4.4212Y-3.3856
X4.5135Y-3.1543
X4.5253Y-5.0436
X4.603Y-1.6764
X4.6978Y-2.6842
X4.701Y-5.3826
X4.724Y-5.7089
X4.7932Y-4.2591
X4.9706Y-3.7381
X5.0298Y-4.125
X5.0391Y-4.2495
X5.0667Y-4.304
X5.1163Y-5.975
X5.2472Y-2.2057
X5.3247Y-5.3757
X5.4116Y-4.6314
X5.5486Y-3.125
X5.9035Y-3.4434
X6.0922Y-4.9834
X6.1153Y-2.2822
X6.117Y-4.9474
X6.138Y-2.7497
X6.4241Y-3.2896
X6.6156Y-2.6196
X6.7756Y-2.6028
X6.7856Y-2.7478
X7.0546Y-5.012
X7.1546Y-4.9136
X7.1815Y-4.1057
X7.2027Y-1.9995
X7.2131Y-5.012
X7.3067Y-4.9801
X7.3185Y-1.8678
X7.3742Y-4.3148
X7.4467Y-3.5815
X7.4573Y-2.4943
X7.4839Y-3.4307
X7.6321Y-5.1364
X7.7997Y-5.0246
X7.9057Y-1.8652
X7.9279Y-5.0406
X8.0086Y-3.3282
X8.2825Y-3.0016
X8.3813Y-4.8228
X8.6164Y-6.1145
X8.6598Y-2.0229
X8.6669Y-4.4178
T2
X4.85Y-4.725
X4.85Y-4.825
X4.85Y-4.925
X4.85Y-5.025
X4.85Y-5.125
X4.85Y-5.225
X4.85Y-5.325
X4.85Y-5.425
X4.85Y-5.525
X4.85Y-5.625
X4.85Y-5.725
X4.85Y-5.825
X4.85Y-5.925
X4.85Y-6.025
X5.45Y-4.725
X5.45Y-4.825
X5.45Y-4.925
X5.45Y-5.025
X5.45Y-5.125
X5.45Y-5.225
X5.45Y-5.325
X5.45Y-5.425
X5.45Y-5.525
X5.45Y-5.625
X5.45Y-5.725
X5.45Y-5.825
X5.45Y-5.925
X5.45Y-6.025
X2.4Y-4.175
X2.4Y-4.275
X2.4Y-4.375
X2.4Y-4.475
X2.4Y-4.575
X2.4Y-4.675
X2.4Y-4.775
X2.7Y-4.175
X2.7Y-4.275
X2.7Y-4.375
X2.7Y-4.475
X2.7Y-4.575
X2.7Y-4.675
X2.7Y-4.775
X1.875Y-4.225
X1.875Y-4.825
X2.175Y-4.225
X2.175Y-4.825
X8.925Y-2.85
X9.0234Y-2.85
X7.8766Y-5.175
X7.975Y-5.175
X6.2Y-5.325
X6.2Y-5.425
X6.2Y-5.525
X6.2Y-5.625
X6.2Y-5.725
X6.2Y-5.825
X6.2Y-5.925
X6.2Y-6.025
X6.5Y-5.325
X6.5Y-5.425
X6.5Y-5.525
X6.5Y-5.625
X6.5Y-5.725
X6.5Y-5.825
X6.5Y-5.925
X6.5Y-6.025
X6.8266Y-5.175
X6.925Y-5.175
X7.8766Y-1.6
X7.975Y-1.6
X3.45Y-5.325
X3.45Y-5.425
X3.45Y-5.525
X3.45Y-5.625
X3.45Y-5.725
X3.45Y-5.825
X3.45Y-5.925
X3.45Y-6.025
X3.75Y-5.325
X3.75Y-5.425
X3.75Y-5.525
X3.75Y-5.625
X3.75Y-5.725
X3.75Y-5.825
X3.75Y-5.925
X3.75Y-6.025
X7.775Y-5.325
X7.775Y-5.425
X7.775Y-5.525
X7.775Y-5.625
X7.775Y-5.725
X7.775Y-5.825
X7.775Y-5.925
X7.775Y-6.025
X8.075Y-5.325
X8.075Y-5.425
X8.075Y-5.525
X8.075Y-5.625
X8.075Y-5.725
X8.075Y-5.825
X8.075Y-5.925
X8.075Y-6.025
X7.3516Y-3.0
X7.45Y-3.0
X1.875Y-3.075
X1.875Y-3.175
X1.875Y-3.275
X1.875Y-3.375
X1.875Y-3.475
X1.875Y-3.575
X1.875Y-3.675
X1.875Y-3.775
X2.175Y-3.075
X2.175Y-3.175
X2.175Y-3.275
X2.175Y-3.375
X2.175Y-3.475
X2.175Y-3.575
X2.175Y-3.675
X2.175Y-3.775
X6.8266Y-2.925
X6.925Y-2.925
X5.675Y-2.0
X5.975Y-2.0
X8.4016Y-1.8
X8.5Y-1.8
X5.675Y-2.125
X5.975Y-2.125
X2.4Y-5.325
X2.4Y-5.425
X2.4Y-5.525
X2.4Y-5.625
X2.4Y-5.725
X2.4Y-5.825
X2.4Y-5.925
X2.4Y-6.025
X2.7Y-5.325
X2.7Y-5.425
X2.7Y-5.525
X2.7Y-5.625
X2.7Y-5.725
X2.7Y-5.825
X2.7Y-5.925
X2.7Y-6.025
X7.25Y-4.3
X7.25Y-4.4
X7.25Y-4.5
X7.25Y-4.6
X7.25Y-4.7
X7.25Y-4.8
X7.25Y-4.9
X7.55Y-4.3
X7.55Y-4.4
X7.55Y-4.5
X7.55Y-4.6
X7.55Y-4.7
X7.55Y-4.8
X7.55Y-4.9
X5.025Y-1.75
X5.025Y-1.85
X5.025Y-1.95
X5.025Y-2.05
X5.025Y-2.15
X5.025Y-2.25
X5.025Y-2.35
X5.025Y-2.45
X5.025Y-2.55
X5.025Y-2.65
X5.325Y-1.75
X5.325Y-1.85
X5.325Y-1.95
X5.325Y-2.05
X5.325Y-2.15
X5.325Y-2.25
X5.325Y-2.35
X5.325Y-2.45
X5.325Y-2.55
X5.325Y-2.65
X8.4016Y-4.15
X8.5Y-4.15
X4.0766Y-1.8
X4.175Y-1.8
X8.9266Y-1.8
X9.025Y-1.8
X5.675Y-2.875
X5.675Y-2.975
X5.675Y-3.075
X5.675Y-3.175
X5.675Y-3.275
X5.675Y-3.375
X5.675Y-3.475
X5.675Y-3.575
X5.675Y-3.675
X5.675Y-3.775
X5.975Y-2.875
X5.975Y-2.975
X5.975Y-3.075
X5.975Y-3.175
X5.975Y-3.275
X5.975Y-3.375
X5.975Y-3.475
X5.975Y-3.575
X5.975Y-3.675
X5.975Y-3.775
X2.4Y-3.075
X2.4Y-3.175
X2.4Y-3.275
X2.4Y-3.375
X2.4Y-3.475
X2.4Y-3.575
X2.4Y-3.675
X2.4Y-3.775
X2.7Y-3.075
X2.7Y-3.175
X2.7Y-3.275
X2.7Y-3.375
X2.7Y-3.475
X2.7Y-3.575
X2.7Y-3.675
X2.7Y-3.775
X5.1016Y-4.575
X5.2Y-4.575
X3.45Y-3.05
X3.45Y-3.15
X3.45Y-3.25
X3.45Y-3.35
X3.45Y-3.45
X3.45Y-3.55
X3.45Y-3.65
X3.45Y-3.75
X3.75Y-3.05
X3.75Y-3.15
X3.75Y-3.25
X3.75Y-3.35
X3.75Y-3.45
X3.75Y-3.55
X3.75Y-3.65
X3.75Y-3.75
X6.3016Y-1.6
X6.4Y-1.6
X5.675Y-2.25
X5.975Y-2.25
X8.975Y-4.4
X8.975Y-4.4984
X1.875Y-5.325
X1.875Y-5.425
X1.875Y-5.525
X1.875Y-5.625
X1.875Y-5.725
X1.875Y-5.825
X1.875Y-5.925
X1.875Y-6.025
X2.175Y-5.325
X2.175Y-5.425
X2.175Y-5.525
X2.175Y-5.625
X2.175Y-5.725
X2.175Y-5.825
X2.175Y-5.925
X2.175Y-6.025
X5.675Y-5.325
X5.675Y-5.425
X5.675Y-5.525
X5.675Y-5.625
X5.675Y-5.725
X5.675Y-5.825
X5.675Y-5.925
X5.675Y-6.025
X5.975Y-5.325
X5.975Y-5.425
X5.975Y-5.525
X5.975Y-5.625
X5.975Y-5.725
X5.975Y-5.825
X5.975Y-5.925
X5.975Y-6.025
X7.3516Y-4.15
X7.45Y-4.15
X7.8766Y-4.15
X7.975Y-4.15
X8.4016Y-5.175
X8.5Y-5.175
X5.7766Y-5.175
X5.875Y-5.175
X2.5016Y-4.025
X2.6Y-4.025
X6.725Y-3.075
X6.725Y-3.175
X6.725Y-3.275
X6.725Y-3.375
X6.725Y-3.475
X6.725Y-3.575
X6.725Y-3.675
X6.725Y-3.775
X7.025Y-3.075
X7.025Y-3.175
X7.025Y-3.275
X7.025Y-3.375
X7.025Y-3.475
X7.025Y-3.575
X7.025Y-3.675
X7.025Y-3.775
X8.3Y-4.3
X8.3Y-4.4
X8.3Y-4.5
X8.3Y-4.6
X8.3Y-4.7
X8.3Y-4.8
X8.3Y-4.9
X8.6Y-4.3
X8.6Y-4.4
X8.6Y-4.5
X8.6Y-4.6
X8.6Y-4.7
X8.6Y-4.8
X8.6Y-4.9
X8.4016Y-3.025
X8.5Y-3.025
X4.85Y-3.025
X4.85Y-3.125
X4.85Y-3.225
X4.85Y-3.325
X4.85Y-3.425
X4.85Y-3.525
X4.85Y-3.625
X4.85Y-3.725
X4.85Y-3.825
X4.85Y-3.925
X4.85Y-4.025
X4.85Y-4.125
X4.85Y-4.225
X4.85Y-4.325
X5.45Y-3.025
X5.45Y-3.125
X5.45Y-3.225
X5.45Y-3.325
X5.45Y-3.425
X5.45Y-3.525
X5.45Y-3.625
X5.45Y-3.725
X5.45Y-3.825
X5.45Y-3.925
X5.45Y-4.025
X5.45Y-4.125
X5.45Y-4.225
X5.45Y-4.325
X3.0266Y-5.175
X3.125Y-5.175
X5.675Y-2.375
X5.975Y-2.375
X5.675Y-1.75
X5.975Y-1.75
X8.825Y-4.15
X9.125Y-4.15
X6.725Y-5.325
X6.725Y-5.425
X6.725Y-5.525
X6.725Y-5.625
X6.725Y-5.725
X6.725Y-5.825
X6.725Y-5.925
X6.725Y-6.025
X7.025Y-5.325
X7.025Y-5.425
X7.025Y-5.525
X7.025Y-5.625
X7.025Y-5.725
X7.025Y-5.825
X7.025Y-5.925
X7.025Y-6.025
X5.775Y-4.05
X5.8734Y-4.05
X4.5Y-1.95
X4.5Y-2.05
X4.5Y-2.15
X4.5Y-2.25
X4.5Y-2.35
X4.5Y-2.45
X4.5Y-2.55
X4.5Y-2.65
X4.8Y-1.95
X4.8Y-2.05
X4.8Y-2.15
X4.8Y-2.25
X4.8Y-2.35
X4.8Y-2.45
X4.8Y-2.55
X4.8Y-2.65
X6.3Y-4.05
X6.3984Y-4.05
X3.5516Y-1.6
X3.65Y-1.6
X3.0266Y-2.925
X3.125Y-2.925
X7.25Y-3.175
X7.25Y-3.275
X7.25Y-3.375
X7.25Y-3.475
X7.25Y-3.575
X7.25Y-3.675
X7.25Y-3.775
X7.55Y-3.175
X7.55Y-3.275
X7.55Y-3.375
X7.55Y-3.475
X7.55Y-3.575
X7.55Y-3.675
X7.55Y-3.775
X7.775Y-3.175
X7.775Y-3.275
X7.775Y-3.375
X7.775Y-3.475
X7.775Y-3.575
X7.775Y-3.675
X7.775Y-3.775
X8.075Y-3.175
X8.075Y-3.275
X8.075Y-3.375
X8.075Y-3.475
X8.075Y-3.575
X8.075Y-3.675
X8.075Y-3.775
X6.2Y-4.2
X6.2Y-4.3
X6.2Y-4.4
X6.2Y-4.5
X6.2Y-4.6
X6.2Y-4.7
X6.2Y-4.8
X6.2Y-4.9
X6.5Y-4.2
X6.5Y-4.3
X6.5Y-4.4
X6.5Y-4.5
X6.5Y-4.6
X6.5Y-4.7
X6.5Y-4.8
X6.5Y-4.9
X2.925Y-4.175
X2.925Y-4.275
X2.925Y-4.375
X2.925Y-4.475
X2.925Y-4.575
X2.925Y-4.675
X2.925Y-4.775
X3.225Y-4.175
X3.225Y-4.275
X3.225Y-4.375
X3.225Y-4.475
X3.225Y-4.575
X3.225Y-4.675
X3.225Y-4.775
X8.9266Y-3.025
X9.025Y-3.025
X3.45Y-4.175
X3.45Y-4.275
X3.45Y-4.375
X3.45Y-4.475
X3.45Y-4.575
X3.45Y-4.675
X3.45Y-4.775
X3.75Y-4.175
X3.75Y-4.275
X3.75Y-4.375
X3.75Y-4.475
X3.75Y-4.575
X3.75Y-4.675
X3.75Y-4.775
X4.2516Y-4.575
X4.35Y-4.575
X5.675Y-2.5
X5.975Y-2.5
X6.725Y-1.95
X6.725Y-2.05
X6.725Y-2.15
X6.725Y-2.25
X6.725Y-2.35
X6.725Y-2.45
X6.725Y-2.55
X6.725Y-2.65
X7.025Y-1.95
X7.025Y-2.05
X7.025Y-2.15
X7.025Y-2.25
X7.025Y-2.35
X7.025Y-2.45
X7.025Y-2.55
X7.025Y-2.65
X1.875Y-2.05
X1.875Y-2.15
X1.875Y-2.25
X1.875Y-2.35
X1.875Y-2.45
X1.875Y-2.55
X1.875Y-2.65
X2.175Y-2.05
X2.175Y-2.15
X2.175Y-2.25
X2.175Y-2.35
X2.175Y-2.45
X2.175Y-2.55
X2.175Y-2.65
X6.8266Y-4.05
X6.925Y-4.05
X3.975Y-1.95
X3.975Y-2.05
X3.975Y-2.15
X3.975Y-2.25
X3.975Y-2.35
X3.975Y-2.45
X3.975Y-2.55
X3.975Y-2.65
X4.275Y-1.95
X4.275Y-2.05
X4.275Y-2.15
X4.275Y-2.25
X4.275Y-2.35
X4.275Y-2.45
X4.275Y-2.55
X4.275Y-2.65
X3.0266Y-1.8
X3.125Y-1.8
X4.2516Y-2.875
X4.35Y-2.875
X8.825Y-3.175
X8.825Y-3.275
X8.825Y-3.375
X8.825Y-3.475
X8.825Y-3.575
X8.825Y-3.675
X8.825Y-3.775
X9.125Y-3.175
X9.125Y-3.275
X9.125Y-3.375
X9.125Y-3.475
X9.125Y-3.575
X9.125Y-3.675
X9.125Y-3.775
X4.0Y-4.725
X4.0Y-4.825
X4.0Y-4.925
X4.0Y-5.025
X4.0Y-5.125
X4.0Y-5.225
X4.0Y-5.325
X4.0Y-5.425
X4.0Y-5.525
X4.0Y-5.625
X4.0Y-5.725
X4.0Y-5.825
X4.0Y-5.925
X4.0Y-6.025
X4.6Y-4.725
X4.6Y-4.825
X4.6Y-4.925
X4.6Y-5.025
X4.6Y-5.125
X4.6Y-5.225
X4.6Y-5.325
X4.6Y-5.425
X4.6Y-5.525
X4.6Y-5.625
X4.6Y-5.725
X4.6Y-5.825
X4.6Y-5.925
X4.6Y-6.025
X6.725Y-4.2
X6.725Y-4.3
X6.725Y-4.4
X6.725Y-4.5
X6.725Y-4.6
X6.725Y-4.7
X6.725Y-4.8
X6.725Y-4.9
X7.025Y-4.2
X7.025Y-4.3
X7.025Y-4.4
X7.025Y-4.5
X7.025Y-4.6
X7.025Y-4.7
X7.025Y-4.8
X7.025Y-4.9
X2.925Y-3.062
X2.925Y-3.162
X2.925Y-3.262
X2.925Y-3.362
X2.925Y-3.462
X2.925Y-3.562
X2.925Y-3.662
X2.925Y-3.762
X3.225Y-3.062
X3.225Y-3.162
X3.225Y-3.262
X3.225Y-3.362
X3.225Y-3.462
X3.225Y-3.562
X3.225Y-3.662
X3.225Y-3.762
X1.9766Y-5.175
X2.075Y-5.175
X8.825Y-1.95
X8.825Y-2.05
X8.825Y-2.15
X8.825Y-2.25
X8.825Y-2.35
X8.825Y-2.45
X8.825Y-2.55
X8.825Y-2.65
X9.125Y-1.95
X9.125Y-2.05
X9.125Y-2.15
X9.125Y-2.25
X9.125Y-2.35
X9.125Y-2.45
X9.125Y-2.55
X9.125Y-2.65
X6.8266Y-1.8
X6.925Y-1.8
X5.675Y-2.65
X5.975Y-2.65
X7.25Y-1.95
X7.25Y-2.05
X7.25Y-2.15
X7.25Y-2.25
X7.25Y-2.35
X7.25Y-2.45
X7.25Y-2.55
X7.25Y-2.65
X7.55Y-1.95
X7.55Y-2.05
X7.55Y-2.15
X7.55Y-2.25
X7.55Y-2.35
X7.55Y-2.45
X7.55Y-2.55
X7.55Y-2.65
X2.4Y-1.95
X2.4Y-2.05
X2.4Y-2.15
X2.4Y-2.25
X2.4Y-2.35
X2.4Y-2.45
X2.4Y-2.55
X2.4Y-2.65
X2.7Y-1.95
X2.7Y-2.05
X2.7Y-2.15
X2.7Y-2.25
X2.7Y-2.35
X2.7Y-2.45
X2.7Y-2.55
X2.7Y-2.65
X8.325Y-2.85
X8.625Y-2.85
X5.1016Y-2.875
X5.2Y-2.875
X3.45Y-1.75
X3.45Y-1.85
X3.45Y-1.95
X3.45Y-2.05
X3.45Y-2.15
X3.45Y-2.25
X3.45Y-2.35
X3.45Y-2.45
X3.45Y-2.55
X3.45Y-2.65
X3.75Y-1.75
X3.75Y-1.85
X3.75Y-1.95
X3.75Y-2.05
X3.75Y-2.15
X3.75Y-2.25
X3.75Y-2.35
X3.75Y-2.45
X3.75Y-2.55
X3.75Y-2.65
X7.3516Y-5.175
X7.45Y-5.175
X1.9766Y-1.9
X2.075Y-1.9
X3.0266Y-4.025
X3.125Y-4.025
X2.5016Y-2.925
X2.6Y-2.925
X6.2Y-3.075
X6.2Y-3.175
X6.2Y-3.275
X6.2Y-3.375
X6.2Y-3.475
X6.2Y-3.575
X6.2Y-3.675
X6.2Y-3.775
X6.5Y-3.075
X6.5Y-3.175
X6.5Y-3.275
X6.5Y-3.375
X6.5Y-3.475
X6.5Y-3.575
X6.5Y-3.675
X6.5Y-3.775
X4.0Y-3.025
X4.0Y-3.125
X4.0Y-3.225
X4.0Y-3.325
X4.0Y-3.425
X4.0Y-3.525
X4.0Y-3.625
X4.0Y-3.725
X4.0Y-3.825
X4.0Y-3.925
X4.0Y-4.025
X4.0Y-4.125
X4.0Y-4.225
X4.0Y-4.325
X4.6Y-3.025
X4.6Y-3.125
X4.6Y-3.225
X4.6Y-3.325
X4.6Y-3.425
X4.6Y-3.525
X4.6Y-3.625
X4.6Y-3.725
X4.6Y-3.825
X4.6Y-3.925
X4.6Y-4.025
X4.6Y-4.125
X4.6Y-4.225
X4.6Y-4.325
X7.3516Y-1.8
X7.45Y-1.8
X8.3Y-1.95
X8.3Y-2.05
X8.3Y-2.15
X8.3Y-2.25
X8.3Y-2.35
X8.3Y-2.45
X8.3Y-2.55
X8.3Y-2.65
X8.6Y-1.95
X8.6Y-2.05
X8.6Y-2.15
X8.6Y-2.25
X8.6Y-2.35
X8.6Y-2.45
X8.6Y-2.55
X8.6Y-2.65
X7.8766Y-3.025
X7.975Y-3.025
X8.3Y-5.325
X8.3Y-5.425
X8.3Y-5.525
X8.3Y-5.625
X8.3Y-5.725
X8.3Y-5.825
X8.3Y-5.925
X8.3Y-6.025
X8.6Y-5.325
X8.6Y-5.425
X8.6Y-5.525
X8.6Y-5.625
X8.6Y-5.725
X8.6Y-5.825
X8.6Y-5.925
X8.6Y-6.025
X1.9766Y-4.025
X2.075Y-4.025
X4.6016Y-1.8
X4.7Y-1.8
X2.925Y-5.325
X2.925Y-5.425
X2.925Y-5.525
X2.925Y-5.625
X2.925Y-5.725
X2.925Y-5.825
X2.925Y-5.925
X2.925Y-6.025
X3.225Y-5.325
X3.225Y-5.425
X3.225Y-5.525
X3.225Y-5.625
X3.225Y-5.725
X3.225Y-5.825
X3.225Y-5.925
X3.225Y-6.025
X6.2Y-1.75
X6.2Y-1.85
X6.2Y-1.95
X6.2Y-2.05
X6.2Y-2.15
X6.2Y-2.25
X6.2Y-2.35
X6.2Y-2.45
X6.2Y-2.55
X6.2Y-2.65
X6.5Y-1.75
X6.5Y-1.85
X6.5Y-1.95
X6.5Y-2.05
X6.5Y-2.15
X6.5Y-2.25
X6.5Y-2.35
X6.5Y-2.45
X6.5Y-2.55
X6.5Y-2.65
X7.25Y-5.325
X7.25Y-5.425
X7.25Y-5.525
X7.25Y-5.625
X7.25Y-5.725
X7.25Y-5.825
X7.25Y-5.925
X7.55Y-5.325
X7.55Y-5.425
X7.55Y-5.525
X7.55Y-5.625
X7.55Y-5.725
X7.55Y-5.825
X7.55Y-5.925
X3.5516Y-2.9
X3.65Y-2.9
X2.925Y-1.95
X2.925Y-2.05
X2.925Y-2.15
X2.925Y-2.25
X2.925Y-2.35
X2.925Y-2.45
X2.925Y-2.55
X2.925Y-2.65
X3.225Y-1.95
X3.225Y-2.05
X3.225Y-2.15
X3.225Y-2.25
X3.225Y-2.35
X3.225Y-2.45
X3.225Y-2.55
X3.225Y-2.65
X6.3016Y-5.175
X6.4Y-5.175
X2.5016Y-1.8
X2.6Y-1.8
X1.9766Y-2.925
X2.075Y-2.925
X3.5516Y-4.025
X3.65Y-4.025
X8.3Y-3.175
X8.3Y-3.275
X8.3Y-3.375
X8.3Y-3.475
X8.3Y-3.575
X8.3Y-3.675
X8.3Y-3.775
X8.6Y-3.175
X8.6Y-3.275
X8.6Y-3.375
X8.6Y-3.475
X8.6Y-3.575
X8.6Y-3.675
X8.6Y-3.775
X7.775Y-1.75
X7.775Y-1.85
X7.775Y-1.95
X7.775Y-2.05
X7.775Y-2.15
X7.775Y-2.25
X7.775Y-2.35
X7.775Y-2.45
X7.775Y-2.55
X7.775Y-2.65
X8.075Y-1.75
X8.075Y-1.85
X8.075Y-1.95
X8.075Y-2.05
X8.075Y-2.15
X8.075Y-2.25
X8.075Y-2.35
X8.075Y-2.45
X8.075Y-2.55
X8.075Y-2.65
X3.5516Y-5.175
X3.65Y-5.175
X5.675Y-4.2
X5.675Y-4.3
X5.675Y-4.4
X5.675Y-4.5
X5.675Y-4.6
X5.675Y-4.7
X5.675Y-4.8
X5.675Y-4.9
X5.975Y-4.2
X5.975Y-4.3
X5.975Y-4.4
X5.975Y-4.5
X5.975Y-4.6
X5.975Y-4.7
X5.975Y-4.8
X5.975Y-4.9
X2.5016Y-5.175
X2.6Y-5.175
X5.675Y-1.875
X5.975Y-1.875
X7.775Y-4.3
X7.775Y-4.4
X7.775Y-4.5
X7.775Y-4.6
X7.775Y-4.7
X7.775Y-4.8
X7.775Y-4.9
X8.075Y-4.3
X8.075Y-4.4
X8.075Y-4.5
X8.075Y-4.6
X8.075Y-4.7
X8.075Y-4.8
X8.075Y-4.9
X6.3016Y-2.925
X6.4Y-2.925
X5.1266Y-1.6
X5.225Y-1.6
T3
X8.975Y-5.525
X8.975Y-5.625
X8.975Y-5.725
X8.975Y-5.825
X8.975Y-5.925
X8.975Y-6.025
T4
X8.8441Y-5.0228
X8.8441Y-5.2
X9.1Y-5.0228
X9.1Y-5.2
T0
M30
